:SAMPLES-PER-SECOND 30
:FULLY-SPECIFIED
:DEGREES
184
root  -6.15781 37.7098 11.9792 -178.455 61.8551 -179.791
RightUpLeg  -25.8815 -4.98816 -7.63054
RightLeg  23.4494 -3.22796 -1.75133
RightFoot  3.2692 -1.81407 14.2588
RightToes  -1.39699e-009 0 -3.6325e-017
Spine  14.4418 -1.38261 -12.5042
Spine1  23.3258 -4.41312 2.26704
HEad  -28.9588 44.5641 -21.1198
LeftShoulder1  1.97288 -5.31586 -15.5835
LeftArm  -2.69689 -19.4005 -62.4186
LeftForeArm  -9.04336 -73.7111 -47.9716
LeftHand  -0.66055 2.31534 24.7335
RightShoulder  0.617623 -0.161802 11.4002
RightArm  1.62225 -10.0776 60.624
RightForeArm  139.108 72.0169 145.603
RightHand  -0.868196 3.81522 -11.18
LeftUpLeg  -7.18592 -1.04243 6.96966
LeftLeg  31.8248 3.71574 2.84543
LeftFoot  -23.9145 -1.35292 -13.5275
LeftToes  3.40148e-010 1.80944e-010 1.01921e-010
185
root  -6.18269 37.7126 11.9679 -178.371 61.9232 -179.542
RightUpLeg  -25.6737 -4.95668 -7.54118
RightLeg  23.2583 -3.1692 -1.71019
RightFoot  3.32534 -1.8254 14.294
RightToes  -1.39699e-009 0 -3.6325e-017
Spine  14.5217 -1.42394 -12.423
Spine1  23.4445 -4.48272 2.31351
HEad  -28.9118 44.5039 -21.0078
LeftShoulder1  2.00404 -5.44612 -15.6085
LeftArm  -2.79605 -19.2908 -62.4157
LeftForeArm  -9.16968 -73.7266 -48.059
LeftHand  -0.605841 2.54563 24.5141
RightShoulder  0.615447 -0.183034 11.4594
RightArm  1.68057 -10.0708 60.6074
RightForeArm  138.82 71.9055 145.777
RightHand  -0.852787 3.48277 -11.377
LeftUpLeg  -7.06802 -1.09974 7.03612
LeftLeg  31.8681 3.79904 2.90503
LeftFoot  -23.9614 -1.35841 -13.5283
LeftToes  3.40148e-010 1.80944e-010 1.01921e-010
186
root  -6.20707 37.7132 11.961 -178.297 62.0031 -179.304
RightUpLeg  -25.4846 -4.84662 -7.46661
RightLeg  23.1015 -3.15408 -1.69223
RightFoot  3.3573 -1.83748 14.3569
RightToes  -1.39699e-009 0 -3.6325e-017
Spine  14.5967 -1.47426 -12.3182
Spine1  23.5427 -4.52191 2.27466
HEad  -28.8367 44.4894 -20.8679
LeftShoulder1  2.00549 -5.44355 -15.6332
LeftArm  -2.83008 -19.2741 -62.4798
LeftForeArm  -9.45236 -73.7139 -48.037
LeftHand  -0.563549 2.73695 24.4371
RightShoulder  0.618096 -0.189386 11.589
RightArm  1.70194 -10.0121 60.5919
RightForeArm  138.533 71.8425 145.855
RightHand  -0.856954 3.26912 -11.697
LeftUpLeg  -6.9376 -1.12899 7.10733
LeftLeg  31.8973 3.85991 2.94861
LeftFoot  -24.0435 -1.36344 -13.4931
LeftToes  3.40148e-010 1.80944e-010 1.01921e-010
187
root  -6.23263 37.7083 11.9612 -178.26 62.144 -179.187
RightUpLeg  -25.4356 -4.68019 -7.43775
RightLeg  23.0203 -3.15752 -1.68817
RightFoot  3.37128 -1.85286 14.4614
RightToes  -1.39699e-009 0 -3.6325e-017
Spine  14.6014 -1.49566 -12.3056
Spine1  23.6302 -4.53114 2.23358
HEad  -28.7824 44.4364 -20.7414
LeftShoulder1  1.99977 -5.38759 -15.7169
LeftArm  -2.8238 -19.3218 -62.4401
LeftForeArm  -9.50202 -73.7312 -48.1232
LeftHand  -0.554573 2.78853 24.5201
RightShoulder  0.612258 -0.224767 11.6158
RightArm  1.71022 -9.88121 60.6264
RightForeArm  138.471 71.8573 145.817
RightHand  -0.85199 3.25942 -11.644
LeftUpLeg  -6.87931 -1.07336 7.13352
LeftLeg  31.9364 3.90581 2.98342
LeftFoot  -24.13 -1.36734 -13.4536
LeftToes  3.40148e-010 1.80944e-010 1.01921e-010
188
root  -6.26111 37.7029 11.9621 -178.288 62.2673 -179.169
RightUpLeg  -25.4329 -4.5992 -7.4423
RightLeg  22.9716 -3.12866 -1.67139
RightFoot  3.38317 -1.86725 14.5598
RightToes  -1.39699e-009 0 -3.6325e-017
Spine  14.5803 -1.49156 -12.3364
Spine1  23.7457 -4.52898 2.22376
HEad  -28.5656 44.0925 -20.4567
LeftShoulder1  2.00695 -5.37564 -15.838
LeftArm  -2.79074 -19.4008 -62.319
LeftForeArm  -9.36387 -73.7634 -48.2545
LeftHand  -0.572743 2.71539 24.6352
RightShoulder  0.601409 -0.272722 11.5494
RightArm  1.67841 -9.80549 60.7047
RightForeArm  138.53 71.8319 145.875
RightHand  -0.833273 3.24532 -11.4127
LeftUpLeg  -6.86552 -0.990104 7.11834
LeftLeg  31.9903 3.92552 3.00221
LeftFoot  -24.1828 -1.36951 -13.4314
LeftToes  3.40148e-010 1.80944e-010 1.01921e-010
189
root  -6.28998 37.6982 11.9634 -178.363 62.3288 -179.155
RightUpLeg  -25.3784 -4.5921 -7.44887
RightLeg  22.9388 -3.0882 -1.65041
RightFoot  3.39917 -1.87441 14.5996
RightToes  -1.39699e-009 0 -3.6325e-017
Spine  14.5908 -1.48217 -12.3096
Spine1  23.8857 -4.50503 2.18314
HEad  -27.9164 43.2641 -19.754
LeftShoulder1  2.01349 -5.40149 -15.8468
LeftArm  -2.76172 -19.4824 -62.3051
LeftForeArm  -9.33599 -73.7563 -48.2179
LeftHand  -0.606803 2.57681 24.8199
RightShoulder  0.5968 -0.290662 11.5357
RightArm  1.61185 -9.82373 60.7678
RightForeArm  138.571 71.7509 146.037
RightHand  -0.819513 3.18251 -11.3086
LeftUpLeg  -6.8319 -0.90929 7.11021
LeftLeg  32.0603 3.89723 2.99033
LeftFoot  -24.2146 -1.37096 -13.4142
LeftToes  3.40148e-010 1.80944e-010 1.01921e-010
190
root  -6.31511 37.6908 11.966 -178.459 62.3925 -179.178
RightUpLeg  -25.3634 -4.52888 -7.47482
RightLeg  22.9611 -3.07807 -1.64723
RightFoot  3.41838 -1.87586 14.5809
RightToes  -1.39699e-009 0 -3.6325e-017
Spine  14.578 -1.46941 -12.2836
Spine1  23.9983 -4.45856 2.10771
HEad  -26.7154 41.964 -18.5616
LeftShoulder1  2.00129 -5.39473 -15.7157
LeftArm  -2.77207 -19.5448 -62.4221
LeftForeArm  -9.4679 -73.7151 -48.0448
LeftHand  -0.640157 2.45515 25.1038
RightShoulder  0.596367 -0.27321 11.5824
RightArm  1.5764 -9.83364 60.787
RightForeArm  138.596 71.7204 146.099
RightHand  -0.818267 3.20325 -11.2561
LeftUpLeg  -6.81455 -0.800515 7.09544
LeftLeg  32.1427 3.84908 2.96626
LeftFoot  -24.2479 -1.37262 -13.3914
LeftToes  3.40148e-010 1.80944e-010 1.01921e-010
191
root  -6.33571 37.6813 11.9711 -178.564 62.519 -179.287
RightUpLeg  -25.4547 -4.374 -7.53595
RightLeg  23.0237 -3.08768 -1.65589
RightFoot  3.4472 -1.87583 14.5446
RightToes  -1.39699e-009 0 -3.6325e-017
Spine  14.5023 -1.43105 -12.3795
Spine1  24.0423 -4.42581 2.11746
HEad  -25.0263 40.2932 -17.0962
LeftShoulder1  1.98344 -5.33898 -15.6501
LeftArm  -2.83056 -19.5978 -62.487
LeftForeArm  -9.57582 -73.6872 -47.9308
LeftHand  -0.653048 2.41493 25.2636
RightShoulder  0.597873 -0.251669 11.5326
RightArm  1.61185 -9.78248 60.8174
RightForeArm  138.633 71.7746 146.001
RightHand  -0.825154 3.3081 -11.1843
LeftUpLeg  -6.8487 -0.652068 7.03982
LeftLeg  32.2216 3.83139 2.96233
LeftFoot  -24.2736 -1.3743 -13.3701
LeftToes  3.40148e-010 1.80944e-010 1.01921e-010
192
root  -6.35436 37.6739 11.9744 -178.669 62.6747 -179.381
RightUpLeg  -25.52 -4.21953 -7.58417
RightLeg  23.0541 -3.07673 -1.65281
RightFoot  3.48578 -1.87646 14.5246
RightToes  -1.39699e-009 0 -3.6325e-017
Spine  14.4516 -1.36084 -12.5686
Spine1  24.0361 -4.43634 2.27983
HEad  -23.0253 38.352 -15.6539
LeftShoulder1  1.98113 -5.28826 -15.7626
LeftArm  -2.95516 -19.6534 -62.423
LeftForeArm  -9.57122 -73.6821 -47.9069
LeftHand  -0.64174 2.44532 25.0808
RightShoulder  0.600094 -0.245868 11.3483
RightArm  1.68929 -9.70965 60.9035
RightForeArm  138.656 71.8407 145.877
RightHand  -0.830936 3.37686 -11.1881
LeftUpLeg  -6.85553 -0.515925 6.98277
LeftLeg  32.2941 3.85325 2.98453
LeftFoot  -24.286 -1.37568 -13.356
LeftToes  3.40148e-010 1.80944e-010 1.01921e-010
193
root  -6.37356 37.6673 11.9739 -178.761 62.8007 -179.377
RightUpLeg  -25.4801 -4.13742 -7.58723
RightLeg  23.0584 -3.02846 -1.6306
RightFoot  3.51061 -1.87828 14.5288
RightToes  -1.39699e-009 0 -3.6325e-017
Spine  14.4731 -1.30488 -12.726
Spine1  24.0331 -4.47456 2.4587
HEad  -20.9825 36.3166 -14.3329
LeftShoulder1  1.98296 -5.26864 -15.8404
LeftArm  -3.17654 -19.6877 -62.3547
LeftForeArm  -9.53234 -73.6818 -47.9002
LeftHand  -0.619397 2.50733 24.7298
RightShoulder  0.601972 -0.244535 11.2126
RightArm  1.78518 -9.62258 60.9918
RightForeArm  138.653 71.8729 145.814
RightHand  -0.832011 3.39435 -11.215
LeftUpLeg  -6.79387 -0.462464 6.95879
LeftLeg  32.3883 3.91059 3.0331
LeftFoot  -24.3068 -1.3781 -13.3578
LeftToes  3.40148e-010 1.80944e-010 1.01921e-010
194
root  -6.39329 37.6551 11.9732 -178.827 62.9106 -179.351
RightUpLeg  -25.4745 -4.0828 -7.58022
RightLeg  23.1212 -2.96495 -1.60511
RightFoot  3.50416 -1.88061 14.5464
RightToes  -1.39699e-009 0 -3.6325e-017
Spine  14.4774 -1.31853 -12.799
Spine1  24.0565 -4.49946 2.45349
HEad  -19.1787 34.4005 -13.0266
LeftShoulder1  1.95827 -5.22566 -15.6525
LeftArm  -3.45283 -19.7071 -62.3722
LeftForeArm  -9.54913 -73.6926 -47.9517
LeftHand  -0.594837 2.60584 24.5866
RightShoulder  0.602413 -0.239894 11.2654
RightArm  1.91912 -9.4952 61.0279
RightForeArm  138.612 71.8884 145.778
RightHand  -0.832371 3.42618 -11.1789
LeftUpLeg  -6.7651 -0.494724 6.93179
LeftLeg  32.5349 4.01375 3.11867
LeftFoot  -24.3561 -1.38832 -13.3983
LeftToes  3.40148e-010 1.80944e-010 1.01921e-010
